<svg xmlns="http://www.w3.org/2000/svg" xmlns:xlink="http://www.w3.org/1999/xlink" width="200" zoomAndPan="magnify" viewBox="0 0 150 149.999998" height="200" preserveAspectRatio="xMidYMid meet" version="1.0"><defs><clipPath id="ba0df4c61e"><path d="M 45 4.15625 L 122.609375 4.15625 L 122.609375 78 L 45 78 Z M 45 4.15625 " clip-rule="nonzero"/></clipPath><clipPath id="0b03038e1b"><path d="M 27.359375 72 L 105 72 L 105 145.90625 L 27.359375 145.90625 Z M 27.359375 72 " clip-rule="nonzero"/></clipPath></defs><path fill="#cb6ce6" d="M 61.597656 57.3125 C 69.453125 47.816406 95.066406 38.789062 116.140625 30.425781 C 116.664062 27.765625 117.203125 25.105469 117.777344 22.460938 C 97.035156 31.003906 65.714844 41.734375 57.628906 51.511719 C 49.558594 61.269531 49.855469 75.191406 57.6875 84.574219 C 53.457031 76.40625 54.972656 65.320312 61.597656 57.3125 " fill-opacity="1" fill-rule="nonzero"/><g clip-path="url(#ba0df4c61e)"><path fill="#cb6ce6" d="M 53.320312 47.941406 C 62.660156 36.648438 97.09375 26.023438 119.164062 16.386719 C 120.1875 12.167969 121.316406 8.058594 122.613281 4.167969 C 98.632812 17.59375 63.714844 25.429688 52.503906 38.976562 C 43.195312 50.230469 42.929688 65.984375 50.867188 77.429688 C 45.589844 68.324219 46.21875 56.519531 53.320312 47.941406 " fill-opacity="1" fill-rule="nonzero"/></g><path fill="#cb6ce6" d="M 67.433594 66.984375 C 74.277344 58.710938 94.59375 50.792969 113.648438 43.363281 C 114.105469 41.019531 114.554688 38.648438 115.011719 36.253906 C 95.5625 43.910156 72.652344 52.730469 65.90625 60.886719 C 59.734375 68.351562 58.457031 78.25 61.699219 86.691406 C 60.847656 79.859375 62.699219 72.707031 67.433594 66.984375 " fill-opacity="1" fill-rule="nonzero"/><path fill="#cb6ce6" d="M 88.382812 92.742188 C 80.523438 102.238281 54.914062 111.265625 33.835938 119.628906 C 33.3125 122.289062 32.773438 124.949219 32.203125 127.589844 C 52.941406 119.050781 84.261719 108.320312 92.347656 98.542969 C 100.421875 88.785156 100.121094 74.863281 92.289062 65.480469 C 96.523438 73.648438 95.007812 84.734375 88.382812 92.742188 " fill-opacity="1" fill-rule="nonzero"/><g clip-path="url(#0b03038e1b)"><path fill="#cb6ce6" d="M 96.660156 102.113281 C 87.320312 113.40625 52.882812 124.03125 30.8125 133.667969 C 29.792969 137.886719 28.660156 141.992188 27.363281 145.886719 C 51.34375 132.460938 86.265625 124.625 97.472656 111.078125 C 106.78125 99.824219 107.046875 84.070312 99.113281 72.625 C 104.390625 81.730469 103.757812 93.535156 96.660156 102.113281 " fill-opacity="1" fill-rule="nonzero"/></g><path fill="#cb6ce6" d="M 82.542969 83.070312 C 75.703125 91.34375 55.382812 99.261719 36.328125 106.691406 C 35.875 109.035156 35.421875 111.40625 34.964844 113.800781 C 54.417969 106.144531 77.324219 97.324219 84.070312 89.167969 C 90.246094 81.707031 91.523438 71.804688 88.277344 63.363281 C 89.128906 70.195312 87.277344 77.347656 82.542969 83.070312 " fill-opacity="1" fill-rule="nonzero"/></svg>